<?xml version="1.0" encoding="UTF-8"?>
<svg version="1.1" xmlns="http://www.w3.org/2000/svg" width="1065" height="1201">
<path d="M0 0 C20.5490257 16.43350456 33.63504756 36.90067674 38.18359375 62.93359375 C40.06585633 93.43403621 34.40536481 118.29889887 14.19067383 141.69946289 C8.82327073 147.70591027 2.96083485 152.57474757 -3.81640625 156.93359375 C-4.65816406 157.48015625 -5.49992187 158.02671875 -6.3671875 158.58984375 C-15.62638859 164.2713217 -25.56045727 168.71601256 -35.38183594 173.32226562 C-38.37174384 174.72498045 -41.35894085 176.1332014 -44.345047 177.54397583 C-59.88074564 184.88147699 -75.47134427 192.09025416 -91.12451172 199.17358398 C-98.32158921 202.43126801 -105.50965219 205.70659295 -112.6796875 209.0234375 C-133.15670519 218.49198926 -153.74249366 227.67815546 -174.4209137 236.69818115 C-179.85583909 239.07083269 -185.28118718 241.46403731 -190.69921875 243.875 C-283.0237417 284.93769674 -283.0237417 284.93769674 -310.81640625 275.93359375 C-319.88952656 272.27981184 -328.64191854 267.6474626 -335.81640625 260.93359375 C-336.56148437 260.24136719 -337.3065625 259.54914063 -338.07421875 258.8359375 C-351.25985942 245.44915994 -356.79757564 227.40642251 -356.81640625 208.93359375 C-355.62531979 188.90168505 -346.53865241 172.63171895 -331.91015625 159.28125 C-324.91491494 153.17226366 -317.50553386 147.62203212 -310.046875 142.09765625 C-305.61793364 138.80664229 -301.28078104 135.4037903 -296.94140625 131.99609375 C-289.55270243 126.21187124 -282.01246761 120.67557481 -274.3828125 115.21484375 C-269.66043191 111.83285911 -264.98624953 108.38760011 -260.31640625 104.93359375 C-251.93733445 98.74293231 -243.50532464 92.62884492 -235.05029297 86.54248047 C-232.0542582 84.38468057 -229.06120474 82.22276734 -226.06835938 80.06054688 C-223.81935317 78.43572279 -221.56983355 76.8116112 -219.3203125 75.1875 C-216.30548106 73.01030352 -213.29265931 70.83036458 -210.28125 68.6484375 C-196.04389824 58.33794316 -181.67394822 48.22319884 -167.26708984 38.15136719 C-162.56277269 34.86134272 -157.86682198 31.56003469 -153.18139648 28.24316406 C-145.22536523 22.61158336 -137.24224597 17.02435789 -129.17919922 11.546875 C-127.46046062 10.37334486 -125.74657581 9.19269625 -124.03564453 8.0078125 C-100.03599425 -8.60462263 -100.03599425 -8.60462263 -86.81640625 -13.06640625 C-85.57246094 -13.49308594 -84.32851563 -13.91976563 -83.046875 -14.359375 C-55.54294055 -22.72626768 -23.09347906 -16.94375925 0 0 Z " fill="#FFC21F" transform="translate(1026.81640625,270.06640625)"/>
<path d="M0 0 C0.90943359 -0.02900391 1.81886719 -0.05800781 2.75585938 -0.08789062 C15.45409779 -0.20292693 27.0884401 4.65302745 38.6875 9.375 C39.61209015 9.74824402 39.61209015 9.74824402 40.55535889 10.12902832 C72.55426135 23.05303227 104.07534363 37.19705158 135.5625 51.3125 C137.18700875 52.04020845 138.81152054 52.76791012 140.43603516 53.49560547 C174.64933346 68.8270166 208.77345636 84.33507694 242.64727783 100.40435791 C244.49725111 101.28156089 246.34789314 102.15733671 248.19873047 103.03271484 C286.77520329 121.29831749 286.77520329 121.29831749 296.5625 130.3125 C297.46355469 131.12203125 298.36460937 131.9315625 299.29296875 132.765625 C315.0643942 147.64514915 326.40271941 169.37688221 327.73950195 191.20239258 C328.37565423 222.39412983 322.12592591 246.55730234 300.203125 269.7578125 C287.97007733 281.59274324 272.14132102 290.42045512 255.5625 294.3125 C254.21091797 294.64701172 254.21091797 294.64701172 252.83203125 294.98828125 C226.32428186 300.48424621 200.03103428 293.64791869 177.5625 279.3125 C171.60252209 275.33877744 165.7763629 271.1766576 159.95068359 267.00976562 C156.45502436 264.5254247 152.91720896 262.10477053 149.375 259.6875 C143.27729365 255.51189674 137.22724826 251.27257032 131.19628906 247.0012207 C126.53087242 243.69787298 121.85123774 240.41580466 117.16259766 237.14550781 C107.6392901 230.50099883 98.19449806 223.75679311 88.79785156 216.93457031 C84.97330653 214.15931068 81.14300847 211.39202017 77.3125 208.625 C76.55952637 208.08093506 75.80655273 207.53687012 75.03076172 206.97631836 C70.55090706 203.74152058 66.06191506 200.52002321 61.5625 197.3125 C47.61142349 187.36247168 33.76080828 177.28055241 19.97998047 167.09619141 C17.52215715 165.2827338 15.06048431 163.47462249 12.59765625 161.66796875 C4.53014517 155.74679382 -3.50215506 149.79309539 -11.41015625 143.66015625 C-13.97964303 141.6675607 -16.561772 139.69284373 -19.1484375 137.72265625 C-24.77687758 133.42582273 -30.31533113 129.02604582 -35.8125 124.5625 C-36.46645752 124.03164795 -37.12041504 123.5007959 -37.79418945 122.95385742 C-39.68176734 121.41441516 -41.56108125 119.86551755 -43.4375 118.3125 C-44.0668042 117.79703613 -44.6961084 117.28157227 -45.34448242 116.75048828 C-58.70939184 105.60982486 -65.42172248 88.99467057 -67.25 72 C-68.27541915 53.71699476 -62.91080006 36.07334141 -50.8125 22.24609375 C-37.3557894 7.60303479 -19.81227521 0.20285606 0 0 Z " fill="#FFC21F" transform="translate(737.4375,651.6875)"/>
<path d="M0 0 C1.23363281 0.41636719 2.46726562 0.83273437 3.73828125 1.26171875 C17.01631252 6.22306026 28.43667282 14.99196446 40 23 C41.49755505 24.02250917 42.99613018 25.04352727 44.49609375 26.0625 C52.57059455 31.55867923 60.54845911 37.19126834 68.51953125 42.8359375 C72.46827721 45.62957236 76.43288646 48.39998094 80.40014648 51.16723633 C88.45942613 56.79004367 96.46755449 62.4752111 104.42163086 68.24584961 C109.42076265 71.86971049 114.44911741 75.44868026 119.5 79 C132.41873588 88.09168179 145.1893463 97.38109354 157.89404297 106.76904297 C163.23813873 110.71398909 168.60908917 114.61932352 174 118.5 C187.82577266 128.45984876 201.53821221 138.55282106 215 149 C216.60252265 150.23168279 218.20681997 151.46102703 219.8112793 152.69018555 C221.98551991 154.35783234 224.15470012 156.0319839 226.32324219 157.70703125 C227.46044366 158.58394142 228.59916783 159.4588798 229.73925781 160.33203125 C249.38688364 175.3905098 265.08964861 190.15191378 269.47265625 215.76171875 C271.69470843 234.48314687 266.60129323 252.69305858 255.00390625 267.55859375 C243.28639958 281.28123525 227.90972653 289.66901607 210 292 C195.3646688 293.1045533 182.27730285 289.9478214 168.75 284.4375 C166.98765015 283.73173828 166.98765015 283.73173828 165.18969727 283.01171875 C107.14339381 259.63178126 50.13889473 233.35623972 -6.61816406 207.03076172 C-10.62566141 205.17241375 -14.63662641 203.3216681 -18.6484375 201.47265625 C-35.19187723 193.83844742 -51.65105185 186.04222646 -68 178 C-68.82935059 177.59410645 -69.65870117 177.18821289 -70.51318359 176.77001953 C-94.4443336 164.96213247 -111.7034305 146.92032549 -120.78125 121.6328125 C-121.1834375 120.43398438 -121.585625 119.23515625 -122 118 C-122.3403125 116.98679687 -122.680625 115.97359375 -123.03125 114.9296875 C-127.68660204 97.73074803 -127.01132253 76.75286605 -121 60 C-120.45666016 58.44925781 -120.45666016 58.44925781 -119.90234375 56.8671875 C-114.43441969 42.66912028 -106.75269359 31.60412443 -96 21 C-95.24847656 20.23816406 -94.49695313 19.47632813 -93.72265625 18.69140625 C-84.65398015 10.02803411 -72.75005514 4.11691458 -61 0 C-59.35644531 -0.58974609 -59.35644531 -0.58974609 -57.6796875 -1.19140625 C-39.50274907 -6.72939068 -17.95144682 -6.15743927 0 0 Z " fill="#FFC21F" transform="translate(125,257)"/>
<path d="M0 0 C0.95447021 0.00829834 1.90894043 0.01659668 2.89233398 0.02514648 C21.17834476 0.45763273 36.4027468 7.43572657 49.25 20.4375 C49.95898438 21.12457031 50.66796875 21.81164062 51.3984375 22.51953125 C63.60380278 35.12238927 68.23117265 52.22930102 68.25 69.4375 C67.36488921 83.88894521 62.76168374 96.75067131 54.25 108.4375 C53.55970703 109.38689453 53.55970703 109.38689453 52.85546875 110.35546875 C48.87430593 115.36920982 43.87639624 119.2048413 38.87304688 123.15136719 C37.16068084 124.50827818 35.46225441 125.88128424 33.765625 127.2578125 C25.40805648 134.02266597 16.88358401 140.53482667 8.25292969 146.94628906 C5.62852575 148.90019682 3.01471987 150.86801448 0.40063477 152.83569336 C-14.44658624 164.00480664 -29.43758759 174.97431891 -44.51611328 185.82861328 C-48.26359784 188.52762128 -52.00655845 191.23288884 -55.75 193.9375 C-57.24997854 195.02086304 -58.74997854 196.10419638 -60.25 197.1875 C-61.36375 197.991875 -61.36375 197.991875 -62.5 198.8125 C-64.75 200.4375 -67 202.0625 -69.25 203.6875 C-69.99233887 204.22366943 -70.73467773 204.75983887 -71.49951172 205.31225586 C-73.00100203 206.39659313 -74.50262987 207.48073999 -76.00439453 208.56469727 C-79.73273848 211.25613342 -83.45870865 213.9507324 -87.1796875 216.65234375 C-97.45419422 224.10548856 -107.8177124 231.42233848 -118.23095703 238.68017578 C-121.52492098 240.97809713 -124.81377118 243.2832741 -128.10253906 245.58862305 C-131.43317196 247.92264437 -134.76593115 250.25361662 -138.09912109 252.58398438 C-139.92529504 253.86085973 -141.75112103 255.13823284 -143.57666016 256.41601562 C-149.38458108 260.47951489 -155.20125904 264.52990673 -161.03271484 268.55957031 C-162.77683021 269.76493737 -164.51947551 270.97243591 -166.26025391 272.18261719 C-180.22790049 281.8681489 -194.09869284 290.29104081 -210.75 294.4375 C-211.99330078 294.77394531 -211.99330078 294.77394531 -213.26171875 295.1171875 C-237.94362915 300.77426587 -263.51813937 294.28180682 -284.75 281.4375 C-287.91253898 279.27233861 -290.83740612 276.92577715 -293.75 274.4375 C-294.54921875 273.79425781 -295.3484375 273.15101563 -296.171875 272.48828125 C-312.99820652 258.35311766 -323.56446732 236.9909592 -326.75 215.4375 C-328.44996934 186.6482262 -323.38848067 160.60336775 -303.75 138.4375 C-284.3550172 116.76798673 -254.68111486 106.09434857 -228.73834229 94.19328308 C-223.52889501 91.80151562 -218.33188928 89.38353578 -213.13671875 86.9609375 C-195.28985945 78.64442895 -177.40458959 70.4359981 -159.39135742 62.48583984 C-151.53821098 59.0182349 -143.70118747 55.51967419 -135.890625 51.95703125 C-102.85511074 36.89282724 -69.63826505 22.18236005 -35.875 8.8125 C-35.21571503 8.54987366 -34.55643005 8.28724731 -33.87716675 8.0166626 C-22.58527482 3.53450269 -12.24684565 -0.13948071 0 0 Z " fill="#FFC21F" transform="translate(326.75,651.5625)"/>
<path d="M0 0 C1.06476563 0.3403125 2.12953125 0.680625 3.2265625 1.03125 C16.38494101 5.67907821 27.63623066 12.72357695 38 22 C38.62132812 22.53882812 39.24265625 23.07765625 39.8828125 23.6328125 C55.3090681 37.91106769 66.06633758 60.49847638 67.12701416 81.516922 C67.63527908 101.50283467 66.11657687 121.20456278 64.29421997 141.0838356 C64.0583265 143.67076887 63.82701812 146.25807367 63.59716797 148.84555054 C50.98716421 290.7841299 50.98716421 290.7841299 41.25 358 C40.9701123 359.94036133 40.9701123 359.94036133 40.68457031 361.91992188 C38.19258416 378.3213963 34.16956071 392.33348785 23 405 C22.01580078 406.12535156 22.01580078 406.12535156 21.01171875 407.2734375 C8.96616615 420.17781378 -6.5588037 426.81662029 -24 428 C-43.3511339 428.17041116 -60.48934254 422.29145529 -74.375 408.66015625 C-75.24125 407.78230469 -76.1075 406.90445312 -77 406 C-77.61875 405.37996094 -78.2375 404.75992187 -78.875 404.12109375 C-89.40214726 392.74409866 -93.28800844 377.55883482 -95.51953125 362.66796875 C-95.73173442 361.29651105 -95.94429183 359.92510812 -96.15718079 358.55375671 C-98.20789284 345.18575774 -99.90268656 331.7750173 -101.45316315 318.34038925 C-101.69413191 316.25510917 -101.93733164 314.17009763 -102.18084717 312.08511353 C-108.84366171 254.90003245 -114.4405434 197.562548 -119.43141937 140.20843887 C-119.62059651 138.05023662 -119.81386268 135.89243919 -120.00836182 133.73471069 C-123.32149122 96.80848558 -125.95200032 61.70060736 -101.5 31.1875 C-100.01457559 29.44579633 -98.51587822 27.715264 -97 26 C-96.18982422 25.06414063 -96.18982422 25.06414063 -95.36328125 24.109375 C-72.4011562 -0.64576233 -31.85866338 -10.36869884 0 0 Z " fill="#FFC21F" transform="translate(560,3)"/>
<path d="M0 0 C20.68367794 15.83544902 26.59917387 36.38398505 30.00390625 61.08984375 C30.12479614 61.95278046 30.24568604 62.81571716 30.37023926 63.70480347 C37.65343629 116.03530222 42.68451473 168.69170823 47.69140625 221.27734375 C47.79757767 222.38993183 47.90374908 223.50251991 48.01313782 224.64882278 C50.16355026 247.19232357 52.26330077 269.73918625 54.078125 292.3125 C54.1713888 293.45264997 54.1713888 293.45264997 54.26653671 294.61583328 C57.56302247 335.16591814 57.56302247 335.16591814 51.31640625 354.15234375 C50.96578125 355.2815625 50.61515625 356.41078125 50.25390625 357.57421875 C42.63208884 379.69866096 25.23977991 398.63070959 4.46679688 409.08300781 C-20.01894872 420.86662181 -46.00705961 422.50285513 -71.80859375 413.90234375 C-83.05476665 409.65012262 -92.58696222 403.97575367 -101.68359375 396.15234375 C-102.65425781 395.38535156 -103.62492187 394.61835937 -104.625 393.828125 C-107.94954036 391.05670801 -110.556135 387.88908547 -113.18359375 384.46484375 C-113.66280273 383.84182373 -114.14201172 383.21880371 -114.63574219 382.5769043 C-120.63122126 374.68570603 -124.93108397 366.99251864 -128.43359375 357.71484375 C-128.87493652 356.55239136 -128.87493652 356.55239136 -129.32519531 355.36645508 C-133.00663818 345.16570159 -134.03257426 335.2016087 -133.95703125 324.40234375 C-133.95150238 323.18772461 -133.94597351 321.97310547 -133.9402771 320.72167969 C-133.78869016 307.19964896 -132.7150096 293.76715797 -131.5016861 280.30682755 C-131.30403817 278.10151351 -131.11083146 275.89585013 -130.91888428 273.69003296 C-125.9263295 216.3726671 -120.28916088 159.07579131 -113.61470795 101.9290123 C-113.37766215 99.89617254 -113.14266015 97.86310523 -112.90802002 95.82998657 C-111.34476423 82.3772441 -109.60149612 68.9560416 -107.51792336 55.57383156 C-107.21486664 53.62247831 -106.9199738 51.6698625 -106.62541199 49.71720886 C-103.47785269 30.11906079 -95.53235629 12.74775477 -79.390625 0.57421875 C-55.63390761 -16.15638852 -24.00974376 -16.53072605 0 0 Z " fill="#FFC21F" transform="translate(571.68359375,781.84765625)"/>
</svg>
